<mxfile host="app.diagrams.net" modified="2024-03-22T20:24:57.046Z" agent="Mozilla/5.0 (Windows NT 10.0; Win64; x64) AppleWebKit/537.36 (KHTML, like Gecko) Chrome/123.0.0.0 Safari/537.36" version="24.0.7" etag="0Te1K64wG-CGu5xRf553" type="github">
  <diagram name="PÃ¡gina-1" id="m2QPElUINBpk2Imb2PkV">
    <mxGraphModel>
      <root>
        <mxCell id="0" />
        <mxCell id="1" parent="0" />
      </root>
    </mxGraphModel>
  </diagram>
</mxfile>
